<svg xmlns="http://www.w3.org/2000/svg" width="46" height="46" viewBox="0 0 46 46">
  <g id="facebook-logo" transform="translate(16.713 11.931)">
    <circle id="Ellipse_28" data-name="Ellipse 28" cx="23" cy="23" r="23" transform="translate(-16.713 -11.931)" opacity="0.2"/>
    <path id="Path_118" data-name="Path 118" d="M33.95,0,30.991,0c-3.325,0-5.473,2.2-5.473,5.616V8.206H22.542a.465.465,0,0,0-.465.466v3.752a.465.465,0,0,0,.465.465h2.975v9.467a.465.465,0,0,0,.465.465h3.882a.465.465,0,0,0,.465-.465V12.888H33.81a.465.465,0,0,0,.465-.465V8.671a.466.466,0,0,0-.466-.466h-3.48V6.01c0-1.055.251-1.591,1.626-1.591H33.95a.465.465,0,0,0,.465-.465V.47A.465.465,0,0,0,33.95,0Z" transform="translate(-22.077)" fill="#fff"/>
  </g>
</svg>
