<svg xmlns="http://www.w3.org/2000/svg" xmlns:xlink="http://www.w3.org/1999/xlink" width="110" height="111.987" viewBox="0 0 110 111.987">
  <defs>
    <clipPath id="clip-path">
      <circle id="Ellipse_24" data-name="Ellipse 24" cx="55" cy="55" r="55" transform="translate(628 164)" fill="#fff"/>
    </clipPath>
    <clipPath id="clip-path-2">
      <path id="Path_129" data-name="Path 129" d="M4972.731,1182.987v-8.91l1.1-5.064,52.936,1.3v12.676Z" transform="translate(-4317 -907)" fill="#fff"/>
    </clipPath>
  </defs>
  <g id="Group_385" data-name="Group 385" transform="translate(-628 -164)">
    <circle id="Ellipse_22" data-name="Ellipse 22" cx="55" cy="55" r="55" transform="translate(628 164)" fill="#fff" opacity="0.3"/>
    <circle id="Ellipse_25" data-name="Ellipse 25" cx="43" cy="43" r="43" transform="translate(640 176)" fill="#fff" opacity="0.3"/>
    <path id="Path_130" data-name="Path 130" d="M4980.62,1121.4l-4.9,5.6,2.74,2.96,2.16,1.04,3.44,7.76,4.8,5.16,6.4,3.3v3.88l2.16,4.8h3.78l2.5-.9,1.28-3.9v-3.88l6.38-3.3,6.18-7.44,1.6-5.48,2.86-1.04,2.62-2.96-2.62-4.58-4.46-11.76-13.84-5.6-21.82,4.22Z" transform="translate(-4317 -907)" fill="#fff"/>
    <path id="Path_131" data-name="Path 131" d="M4994.9,1152.46l-9.12,2.04-5.38,4.24-4.58,6.62-2.06,8,12.02,5.14,17.7,1.72,9.38-1.72,13.02-5.14v-6.4l-8.92-10.4-11.54-4.1s-1.625,4.1-5.14,4.1S4994.9,1152.46,4994.9,1152.46Z" transform="translate(-4317 -907)" fill="#1990ea"/>
    <g id="Mask_Group_7" data-name="Mask Group 7" clip-path="url(#clip-path)">
      <g id="noun_Man_1493287" transform="translate(629.926 178.918)">
        <path id="Path_126" data-name="Path 126" d="M16.715,96.082H82.333a1.089,1.089,0,0,0,0-2.178H80.4V88.779A24.005,24.005,0,0,0,59.2,65.047V61.932A20.124,20.124,0,0,0,73.026,45.616h.2A4.841,4.841,0,0,0,76.1,36.87V18.138a7.565,7.565,0,0,0-7.556-7.556H37.725a7.565,7.565,0,0,0-7.556,7.556V36.923a4.838,4.838,0,0,0,2.941,8.693h.2A20.124,20.124,0,0,0,47.133,61.932v3.115a24,24,0,0,0-21.2,23.732V93.9H16.715a1.089,1.089,0,1,0,0,2.178ZM73.25,43.438V38.084a2.677,2.677,0,0,1,0,5.354Zm-40.163,0a2.677,2.677,0,0,1,0-5.354v5.354Zm2.178-.657V37.492l2.922-2.534a1.092,1.092,0,0,0,.375-.823V26.579H56.6a1.084,1.084,0,0,0,.589-.173l4.187-2.691-.44,1.46a1.088,1.088,0,0,0,1.042,1.4H67.9v7.08a1.086,1.086,0,0,0,.3.75l2.87,3.02v5.352A17.93,17.93,0,0,1,58.646,59.819l-.817.222a18.492,18.492,0,0,1-2.02.425c-.145.022-.289.049-.435.067-.246.032-.492.055-.738.076-.431.035-.864.062-1.3.066q-.164,0-.329,0c-.44,0-.873-.031-1.305-.066-.245-.021-.491-.044-.737-.076-.146-.018-.29-.045-.436-.067a18.456,18.456,0,0,1-2.018-.425l-.821-.223A17.93,17.93,0,0,1,35.265,42.781Zm17.9,20.082a20.076,20.076,0,0,0,3.858-.381v3.036l-.007.475a3.85,3.85,0,0,1-7.7,0l-.007-.475V62.482A20.074,20.074,0,0,0,53.168,62.862ZM28.112,88.779A21.838,21.838,0,0,1,47.268,67.2a6.052,6.052,0,0,0,3.819,4.4l.061.022a5.947,5.947,0,0,0,.926.251c.037.007.075.011.113.017a5.57,5.57,0,0,0,1.963,0c.037-.006.075-.01.112-.017a5.945,5.945,0,0,0,.928-.252l.057-.021a6.053,6.053,0,0,0,3.822-4.4A21.838,21.838,0,0,1,78.225,88.779V93.9h-9.2V84.736a1.089,1.089,0,0,0-2.178,0V93.9H39.486V84.736a1.089,1.089,0,0,0-2.178,0V93.9h-9.2Z" transform="translate(0)"/>
        <path id="Path_127" data-name="Path 127" d="M47.388,44.855a3.6,3.6,0,0,0,2.529.632,1.4,1.4,0,0,1,.692.136,1.089,1.089,0,1,0,.966-1.953,3.456,3.456,0,0,0-1.844-.353,1.14,1.14,0,0,1-1.023-.288,13.563,13.563,0,0,0,1.872-6.566,1.09,1.09,0,0,0-1.089-1.068H49.47a1.089,1.089,0,0,0-1.068,1.11,11.367,11.367,0,0,1-1.568,5.413A2.232,2.232,0,0,0,47.388,44.855Z" transform="translate(2.754 2.213)"/>
        <path id="Path_128" data-name="Path 128" d="M50.557,52.557c4.907,0,5.981-3.5,6.024-3.644a1.079,1.079,0,0,0-.728-1.336,1.091,1.091,0,0,0-1.359.712c-.028.085-.718,2.09-3.938,2.09-3.137,0-3.8-1.844-3.866-2.067a1.089,1.089,0,0,0-2.1.58C44.631,49.041,45.632,52.557,50.557,52.557Z" transform="translate(2.58 3.294)"/>
      </g>
    </g>
    <g id="Mask_Group_6" data-name="Mask Group 6" clip-path="url(#clip-path-2)">
      <g id="Ellipse_23" data-name="Ellipse 23" transform="translate(628 164)" fill="none" stroke="#000" stroke-width="2">
        <circle cx="55" cy="55" r="55" stroke="none"/>
        <circle cx="55" cy="55" r="54" fill="none"/>
      </g>
    </g>
  </g>
</svg>
