<svg xmlns="http://www.w3.org/2000/svg" width="46" height="46" viewBox="0 0 46 46">
  <g id="instagram-logo" transform="translate(11.911 11.931)">
    <circle id="Ellipse_26" data-name="Ellipse 26" cx="23" cy="23" r="23" transform="translate(-11.911 -11.931)" opacity="0.2"/>
    <path id="Path_119" data-name="Path 119" d="M16.523,0H6.3A6.3,6.3,0,0,0,0,6.3V16.523a6.3,6.3,0,0,0,6.3,6.3H16.523a6.3,6.3,0,0,0,6.3-6.3V6.3A6.3,6.3,0,0,0,16.523,0ZM20.8,16.523A4.278,4.278,0,0,1,16.523,20.8H6.3a4.278,4.278,0,0,1-4.273-4.273V6.3A4.278,4.278,0,0,1,6.3,2.025H16.523A4.278,4.278,0,0,1,20.8,6.3V16.523Z" fill="#fff"/>
    <path id="Path_120" data-name="Path 120" d="M46.848,40.97a5.88,5.88,0,1,0,5.88,5.88A5.887,5.887,0,0,0,46.848,40.97Zm0,9.735A3.855,3.855,0,1,1,50.7,46.85,3.86,3.86,0,0,1,46.848,50.705Z" transform="translate(-35.438 -35.44)" fill="#fff"/>
    <path id="Path_121" data-name="Path 121" d="M120.406,28.251a1.484,1.484,0,1,0,1.05.435A1.491,1.491,0,0,0,120.406,28.251Z" transform="translate(-102.868 -24.438)" fill="#fff"/>
  </g>
</svg>
