<svg xmlns="http://www.w3.org/2000/svg" width="133.428" height="31" viewBox="0 0 133.428 31">
  <g id="logo-wh" transform="translate(-0.2 -0.038)">
    <path id="Path_138" data-name="Path 138" d="M417.373,36.58a7.557,7.557,0,0,0-3.412.8,6.064,6.064,0,0,0-2.465,2.141v-.6a2,2,0,0,0-2-2h0l.062,19.727,1.935,1.2V50.232A6.71,6.71,0,0,0,414.07,52.4a7.866,7.866,0,0,0,3.471.746,7.757,7.757,0,0,0,5.8-2.385,8.635,8.635,0,0,0-.033-11.8A7.992,7.992,0,0,0,417.373,36.58Zm4.374,12.865a5.766,5.766,0,0,1-4.269,1.817,5.551,5.551,0,0,1-4.2-1.919A6.548,6.548,0,0,1,411.5,44.71a6.175,6.175,0,0,1,1.783-4.374,5.51,5.51,0,0,1,4.117-1.883,5.766,5.766,0,0,1,4.323,1.876,6.474,6.474,0,0,1,1.8,4.649,6.129,6.129,0,0,1-1.8,4.469Z" transform="translate(-303.989 -27.14)" fill="#fff"/>
    <path id="Path_139" data-name="Path 139" d="M284.628,20.035A2.025,2.025,0,0,0,282.613,18H282.6v3.27h2.025Z" transform="translate(-209.74 -13.34)" fill="#fff"/>
    <path id="Path_140" data-name="Path 140" d="M282.481,37.92h-2.027V52.931h-.744v.877h3.51v-.877h-.738Z" transform="translate(-207.593 -28.135)" fill="#fff"/>
    <path id="Path_141" data-name="Path 141" d="M325.444,51.392V44.836q0-4.281-1.467-6.216a5.5,5.5,0,0,0-4.685-1.932,7.078,7.078,0,0,0-3.2.71,6.368,6.368,0,0,0-2.393,2.076,5.462,5.462,0,0,0-2.256-2.033,7.109,7.109,0,0,0-3.265-.754,6.947,6.947,0,0,0-2.781.533,5.876,5.876,0,0,0-2.133,1.58,1.8,1.8,0,0,0-1.8-1.8h-.2V51.479a.643.643,0,0,1-.643.643V53h3.51v-.877H303.9a.643.643,0,0,1-.643-.643V45.124a18.523,18.523,0,0,1,.152-2.882,4.554,4.554,0,0,1,.515-1.474,4.1,4.1,0,0,1,1.644-1.588,5.089,5.089,0,0,1,2.421-.553,4.232,4.232,0,0,1,3.391,1.286,6.161,6.161,0,0,1,1.112,4.058v7.462a.687.687,0,0,1-.687.687h-.226V53h3.509v-.875a.687.687,0,0,1-.684-.69h0V45.124a17.685,17.685,0,0,1,.157-2.882,4.915,4.915,0,0,1,.515-1.474,4.117,4.117,0,0,1,1.631-1.588,4.94,4.94,0,0,1,2.377-.553,4.014,4.014,0,0,1,3.376,1.33,7.377,7.377,0,0,1,1.029,4.462v6.973a.731.731,0,0,1-.731.731V53h3.51v-.877h-.108A.731.731,0,0,1,325.444,51.392Z" transform="translate(-223.123 -27.219)" fill="#fff"/>
    <path id="Path_142" data-name="Path 142" d="M261.662,20.035A2.025,2.025,0,0,0,259.647,18h0V38.244h-.787v.877h3.509v-.877h-.7Z" transform="translate(-192.108 -13.34)" fill="#fff"/>
    <path id="Path_143" data-name="Path 143" d="M484.247,51.187h-5.66a.515.515,0,0,1-.432-.808l7.745-11.12v-.772A1.487,1.487,0,0,0,484.412,37h-8.375a1.968,1.968,0,0,0,1.968,1.968h4.58a.515.515,0,0,1,.432.821L475.09,51.306v.7a1.263,1.263,0,0,0,1.263,1.263h9.978A2.087,2.087,0,0,0,484.247,51.187Z" transform="translate(-352.703 -27.452)" fill="#fff"/>
    <path id="Path_144" data-name="Path 144" d="M181.294,30.573h8.55a8.285,8.285,0,0,1-2.913,4.685,7.837,7.837,0,0,1-5.058,1.8,8.046,8.046,0,0,1-6.026-2.527,8.715,8.715,0,0,1-2.442-6.306,8.447,8.447,0,0,1,2.447-6.088,8.01,8.01,0,0,1,5.99-2.532,7.763,7.763,0,0,1,3.705.883,10.019,10.019,0,0,1,3.111,2.73h2.483a10.531,10.531,0,0,0-3.816-4.117,10.125,10.125,0,0,0-5.37-1.446,11.041,11.041,0,0,0-4.117.733,10.035,10.035,0,0,0-3.373,2.244,10.711,10.711,0,0,0-2.4,3.486,10.387,10.387,0,0,0-.818,4.091,10.653,10.653,0,0,0,3,7.7,9.931,9.931,0,0,0,7.444,3.1A10.1,10.1,0,0,0,189,36.133a10.713,10.713,0,0,0,3.232-7.372H179.475A1.819,1.819,0,0,0,181.294,30.573Z" transform="translate(-127.039 -13.084)" fill="#fff"/>
    <path id="Path_145" data-name="Path 145" d="M34.845,17.169,6.066.558A3.916,3.916,0,0,0,.2,3.95v8.825a16.39,16.39,0,0,0,1.544,6.69v-.057c3.183,2.959,9.983-.944,13.9-2.977,6.085-3.165.443,17.205,10.42,12.582l-.131.085,8.908-5.146a3.916,3.916,0,0,0,0-6.782Z" transform="translate(0 0)" fill="#fff"/>
    <path id="Path_146" data-name="Path 146" d="M11.69,78.5a18.4,18.4,0,0,0,8.91,7.873,27.9,27.9,0,0,0,3.749-1.091c-2.48-2.9-2.6-7.932-2.6-9.005C20.667,76.861,15.066,79.658,11.69,78.5Z" transform="translate(-8.534 -56.625)" fill="#fff"/>
    <path id="Path_147" data-name="Path 147" d="M64,115.484a14.648,14.648,0,0,0,6.175-.566,3.561,3.561,0,0,1-2.4-1.057A12.865,12.865,0,0,1,64,115.484Z" transform="translate(-47.385 -84.536)" fill="#fff"/>
    <path id="Path_148" data-name="Path 148" d="M54.154,70.277a17.841,17.841,0,0,0,.548,4.817l3.378-1.51c-.057-.383-.291-1.909-.386-2.655a5.328,5.328,0,0,0-.545-2.138C56.835,68.939,55.654,69.5,54.154,70.277Z" transform="translate(-40.05 -51.062)" fill="#fff"/>
    <path id="Path_149" data-name="Path 149" d="M51.7,111.434c.327.1.772.214.985.257a15.935,15.935,0,0,0,5.5-1.968,2.946,2.946,0,0,1-.329-.443A30.818,30.818,0,0,1,51.7,111.434Z" transform="translate(-38.249 -81.134)" fill="#fff"/>
    <path id="Path_150" data-name="Path 150" d="M57.77,92.876c.023.077.059.2.111.355l3.139-1.353c-.021-.154-.036-.309-.049-.458Z" transform="translate(-42.758 -67.87)" fill="#fff"/>
    <path id="Path_151" data-name="Path 151" d="M58.93,96.672c.039.1.08.2.121.291l2.977-1.286-.062-.316Z" transform="translate(-43.619 -70.796)" fill="#fff"/>
    <path id="Path_152" data-name="Path 152" d="M60.3,99.948c.046.093.1.188.149.278l2.8-1.207c-.028-.1-.057-.2-.082-.309Z" transform="translate(-44.637 -73.284)" fill="#fff"/>
    <path id="Path_153" data-name="Path 153" d="M62,103.1q.09.136.185.257l2.594-1.117c-.036-.1-.069-.2-.1-.3Z" transform="translate(-45.899 -75.683)" fill="#fff"/>
    <path id="Path_154" data-name="Path 154" d="M64.14,106.155l.129.131,2.408-.947c-.026-.057-.059-.134-.1-.229Z" transform="translate(-47.489 -78.037)" fill="#fff"/>
  </g>
</svg>
