<svg xmlns="http://www.w3.org/2000/svg" width="46" height="46" viewBox="0 0 46 46">
  <g id="twitter" transform="translate(12.256 13.635)">
    <circle id="Ellipse_27" data-name="Ellipse 27" cx="23" cy="23" r="23" transform="translate(-12.256 -13.635)" opacity="0.2"/>
    <g id="Group_154" data-name="Group 154" transform="translate(0 0)">
      <path id="Path_122" data-name="Path 122" d="M22.5,50.164a9.616,9.616,0,0,1-2.658.728,4.586,4.586,0,0,0,2.029-2.549,9.218,9.218,0,0,1-2.925,1.116,4.612,4.612,0,0,0-7.978,3.154,4.749,4.749,0,0,0,.107,1.052,13.055,13.055,0,0,1-9.507-4.824,4.613,4.613,0,0,0,1.417,6.164A4.555,4.555,0,0,1,.9,54.437v.051a4.633,4.633,0,0,0,3.7,4.532,4.6,4.6,0,0,1-1.209.152,4.078,4.078,0,0,1-.873-.079,4.656,4.656,0,0,0,4.31,3.213A9.268,9.268,0,0,1,1.1,64.272,8.639,8.639,0,0,1,0,64.209a12.985,12.985,0,0,0,7.075,2.07A13.037,13.037,0,0,0,20.2,53.155c0-.2-.007-.4-.017-.6A9.2,9.2,0,0,0,22.5,50.164Z" transform="translate(0 -48)" fill="#fff"/>
    </g>
  </g>
</svg>
